<svg width="192" height="64" viewBox="0 0 192 64" fill="none" xmlns="http://www.w3.org/2000/svg">
<path d="M48.7908 22.0776L44.189 22.0436C42.9462 22.0436 41.9354 20.985 41.9354 19.6831L41.932 15.2201C41.932 12.1212 39.362 9.6 36.2034 9.6H27.8091C24.6505 9.6 22.0799 12.1212 22.0799 15.2201L22.1099 28.1118C22.1099 30.9651 24.2905 33.3279 27.1016 33.6838H36.5169C37.5532 33.7998 38.3851 34.558 38.564 35.53V48.7805C38.564 50.0224 37.5045 51.0329 36.2028 51.0329H27.8091C26.5074 51.0329 25.4479 50.0224 25.4479 48.7805V43.5151C25.1372 40.8565 22.9277 38.7562 20.1862 38.5559H15.2216C13.9788 38.5559 12.968 37.4973 12.968 36.1954V27.8046C12.968 26.5027 13.9788 25.4441 15.2216 25.4441H18.7125V22.077H15.2216C12.1213 22.077 9.6 24.6463 9.6 27.8046V36.1954C9.6 39.3537 12.1213 41.923 15.2216 41.923H20.0379C21.0708 42.0401 21.8999 42.7955 22.0799 43.763V48.7799C22.0799 51.8788 24.6505 54.4 27.8091 54.4H36.2028C39.3614 54.4 41.9314 51.8788 41.9314 48.7799V39.4103H41.9693L41.9314 35.2833C41.6235 32.619 39.4089 30.5136 36.6607 30.3173H27.3552C26.2844 30.104 25.4785 29.197 25.4785 28.113L25.4485 15.2212C25.4485 13.9793 26.508 12.9688 27.8097 12.9688H36.2034C37.5051 12.9688 38.5645 13.9793 38.5645 15.2212L38.5674 19.6842C38.5674 22.842 41.0898 25.4118 44.1896 25.4118L48.7914 25.4458C50.0336 25.4458 51.045 26.5044 51.045 27.8063V36.1971C51.045 37.499 50.0336 38.5576 48.7914 38.5576H45.3005V41.9247H48.7914C51.8911 41.9247 54.413 39.3554 54.413 36.1971V27.8063C54.4119 24.6469 51.89 22.0776 48.7908 22.0776Z" fill="#62C1BF"/>
<path d="M79.0755 37.2776C79.3597 37.1924 79.6155 37.1072 79.8144 37.0503L80.6386 39.7779C80.4397 39.8348 80.2123 39.8916 79.9565 39.9768C78.8197 40.3462 77.1145 40.9144 75.2956 41.1417C74.7272 41.227 74.1872 41.2554 73.6757 41.2554C71.9989 41.2554 70.6347 40.886 69.5832 40.1189C67.9632 38.954 67.1674 36.9935 67.1674 34.3228V29.2938C67.1674 26.623 67.9632 24.6626 69.5832 23.4977C70.9757 22.5032 72.8799 22.1339 75.2956 22.4748C77.1145 22.7021 78.8197 23.2704 79.9565 23.6397C80.2123 23.725 80.4397 23.7818 80.6386 23.8386L79.8144 26.5662C79.6155 26.5094 79.3597 26.4241 79.0755 26.3389C78.0524 25.9979 76.4893 25.4865 74.9262 25.2876C73.2778 25.0603 72.0273 25.2308 71.2599 25.7991C70.4358 26.3957 70.0095 27.589 70.0095 29.2938V34.3228C70.0095 36.0275 70.4358 37.2208 71.2599 37.8175C72.0273 38.3857 73.2778 38.5562 74.9262 38.3289C76.4893 38.13 78.0524 37.6186 79.0755 37.2776ZM86.8058 38.0732H94.5077V40.9144H83.9638V22.7589H93.854V25.6002H86.8058V29.8052H93.3425V32.6464H86.8058V38.0732ZM108.206 40.9428C108.093 38.3857 106.473 36.7946 104.142 34.8626H100.22V40.9428H97.3781V22.7874H99.3391H100.22H105.165C105.961 22.7874 106.7 22.9294 107.439 23.1851C108.149 23.4692 108.831 23.8954 109.371 24.4069C110.594 25.5433 111.276 27.106 111.276 28.8108C111.276 30.5439 110.594 32.1066 109.371 33.2147C108.917 33.6693 108.377 34.0102 107.808 34.2943C108.292 34.7774 108.746 35.2604 109.173 35.8286C110.366 37.3629 110.963 39.0108 111.048 40.8292V40.9428H108.206ZM100.22 32.0214H105.165C106.757 32.0214 108.434 30.8849 108.434 28.8108C108.434 26.7367 106.757 25.6286 105.165 25.6286H100.22V32.0214ZM121.308 30.7144L128.299 40.9144H124.861L119.12 32.5612C117.898 33.6693 116.96 34.8058 116.818 36.2832V40.9144H113.976V22.7305H116.818V30.7996C117.5 30.1746 118.21 29.5779 118.921 28.9812C121.109 27.1913 123.184 25.4865 123.354 22.7305H126.225C126.139 24.5205 125.514 26.14 124.349 27.6743C123.468 28.8392 122.388 29.8052 121.308 30.7144ZM133.756 40.9428H130.914V22.7874H133.756V40.9428ZM148.364 22.7589V25.6002H143.93V40.9428H141.088V25.6002H136.683V22.7589H148.364ZM154.19 38.0732H161.892V40.9144H151.348V22.7589H161.238V25.6002H154.19V29.8052H160.727V32.6464H154.19V38.0732ZM172.209 30.7144L179.2 40.9144H175.761L170.02 32.5612C168.798 33.6693 167.86 34.8058 167.718 36.2832V40.9144H164.876V22.7305H167.718V30.7996C168.4 30.1746 169.111 29.5779 169.821 28.9812C172.01 27.1913 174.084 25.4865 174.255 22.7305H177.125C177.04 24.5205 176.415 26.14 175.25 27.6743C174.369 28.8392 173.289 29.8052 172.209 30.7144Z" fill="#62C1BF"/>
</svg>
